<svg id="sliders" xmlns="http://www.w3.org/2000/svg" width="24.548" height="16.939" viewBox="0 0 24.548 16.939">
  <path id="Path_2021" data-name="Path 2021" d="M197.748.764v.764a2.412,2.412,0,0,1,2.006,1.07,2.4,2.4,0,0,1,.414,1.35,2.413,2.413,0,0,1-1.07,2.006,2.4,2.4,0,0,1-1.35.414,2.412,2.412,0,0,1-2.006-1.07,2.4,2.4,0,0,1-.414-1.35,2.413,2.413,0,0,1,1.07-2.006,2.4,2.4,0,0,1,1.35-.414V0a3.866,3.866,0,0,0-1.535.312,4.011,4.011,0,0,0-1.738,1.426,3.937,3.937,0,0,0-.675,2.21,3.866,3.866,0,0,0,.312,1.535,3.982,3.982,0,0,0,1.433,1.738,3.937,3.937,0,0,0,2.21.675,3.866,3.866,0,0,0,1.535-.312,4.012,4.012,0,0,0,1.738-1.426,3.937,3.937,0,0,0,.675-2.21,3.866,3.866,0,0,0-.312-1.535A3.956,3.956,0,0,0,197.748,0Z" transform="translate(-181.478)" fill="rgba(32,32,34,0.87)"/>
  <path id="Path_2022" data-name="Path 2022" d="M1.064,51H12.622a.764.764,0,1,1,0,1.528H1.064a.764.764,0,0,1,0-1.528Z" transform="translate(-0.3 -47.752)" fill="rgba(32,32,34,0.87)"/>
  <path id="Path_2023" data-name="Path 2023" d="M306.564,51h3.566a.764.764,0,0,1,0,1.528h-3.566a.764.764,0,0,1,0-1.528Z" transform="translate(-286.346 -47.752)" fill="rgba(32,32,34,0.87)"/>
  <path id="Path_2024" data-name="Path 2024" d="M72.248,142.671v.764a2.412,2.412,0,0,0-2.006,1.07,2.4,2.4,0,0,0-.414,1.35,2.412,2.412,0,0,0,1.07,2.006,2.4,2.4,0,0,0,1.35.414,2.412,2.412,0,0,0,2.006-1.07,2.4,2.4,0,0,0,.414-1.35,2.412,2.412,0,0,0-1.07-2.006,2.4,2.4,0,0,0-1.35-.414v-1.528a3.866,3.866,0,0,1,1.535.312,3.982,3.982,0,0,1,1.738,1.433,3.937,3.937,0,0,1,.675,2.21,3.866,3.866,0,0,1-.312,1.535,3.92,3.92,0,0,1-3.636,2.407,3.866,3.866,0,0,1-1.535-.312,3.982,3.982,0,0,1-1.738-1.433,3.937,3.937,0,0,1-.675-2.21,3.866,3.866,0,0,1,.312-1.535,4.011,4.011,0,0,1,1.426-1.738,3.937,3.937,0,0,1,2.21-.675Z" transform="translate(-63.97 -132.864)" fill="rgba(32,32,34,0.87)"/>
  <path id="Path_2025" data-name="Path 2025" d="M192.622,193H181.064a.764.764,0,1,0,0,1.528h11.558a.764.764,0,1,0,0-1.528Z" transform="translate(-168.838 -180.71)" fill="rgba(32,32,34,0.87)"/>
  <path id="Path_2026" data-name="Path 2026" d="M4.63,193H1.064a.764.764,0,0,0,0,1.528H4.63a.764.764,0,0,0,0-1.528Z" transform="translate(-0.3 -180.71)" fill="rgba(32,32,34,0.87)"/>
</svg>
